<svg width="77" height="23" viewBox="0 0 77 23" fill="none" xmlns="http://www.w3.org/2000/svg">
<path d="M32.0988 21.332H36.1027L36.0874 21.2407L35.5089 21.195C35.311 21.195 35.1588 21.1798 35.037 21.1646C34.9152 21.1493 34.8391 21.1341 34.7782 21.1037C34.7173 21.0885 34.6716 21.0732 34.6716 21.058C34.6564 21.0428 34.6564 21.0123 34.6564 20.9819L36.5746 11.9543H37.9447C38.4623 12.0152 38.8429 12.1522 39.056 12.3958C39.2692 12.6393 39.4366 13.1417 39.5584 13.9029L39.5889 14.0856H39.6498L39.8781 11.8173H32.3881L31.6878 14.0856H31.7639L31.8857 13.8877C32.2663 13.2635 32.6164 12.7916 32.9209 12.4871C33.2254 12.1826 33.606 12.0152 34.0475 11.9543H35.6003L33.7125 20.9362C33.6821 21.058 33.4233 21.1493 32.9209 21.1798L32.1445 21.2407L32.0988 21.332ZM43.4621 21.5147C43.934 21.5147 44.543 20.784 45.2889 19.3225L45.1976 19.2768L44.0558 21.0123L43.3251 20.921L44.4973 17.9981C45.0301 16.6736 45.3041 15.8972 45.3041 15.6841C45.3041 15.4405 45.1976 15.2274 44.9997 15.0142C44.8018 14.8011 44.6191 14.6945 44.4364 14.6945C44.071 14.6945 43.7361 14.862 43.4164 15.1969C43.1119 15.5014 42.7009 16.0342 42.1681 16.8106C41.6353 17.6022 41.1633 18.3786 40.7675 19.1551L40.6762 19.1246C41.1633 17.9372 41.8941 15.6232 42.8988 12.2131L43.1881 11.2388L40.9197 11.4976L40.8893 11.5889L42.1072 11.6346C42.2138 11.6346 42.2442 11.7564 42.1833 11.9847L41.8636 13.1113C41.6505 13.8725 41.3612 14.8163 41.0263 15.9429C40.6762 17.0846 40.3717 18.0437 40.1281 18.8049L39.2604 21.3016L40.0216 21.3777L40.5696 19.9315C41.1938 18.5918 41.8484 17.4652 42.5182 16.5518C43.1881 15.6384 43.66 15.1817 43.9188 15.1817C44.0863 15.1817 44.2233 15.2426 44.3451 15.3339C44.4669 15.4405 44.5277 15.5623 44.5277 15.7145C44.5277 15.8667 44.2537 16.6279 43.7361 17.9981C43.6143 18.333 43.4469 18.744 43.2337 19.2464C43.0206 19.7488 42.8684 20.1446 42.7618 20.4338C42.64 20.7231 42.5943 20.8905 42.5943 20.9362C42.5943 21.0428 42.7009 21.1646 42.914 21.3016C43.1272 21.4538 43.3099 21.5147 43.4621 21.5147ZM47.5306 21.5147C48.3527 21.5147 49.1748 20.7992 49.9968 19.353L49.8903 19.3073C49.5249 19.9162 49.19 20.3425 48.8855 20.5861C48.581 20.8449 48.2309 20.9667 47.8655 20.9667C47.4697 20.9667 47.1652 20.7992 46.9521 20.4643C46.739 20.1294 46.6324 19.6879 46.6324 19.1398C46.6324 18.6679 46.7085 18.1655 46.876 17.6175C48.17 17.4196 49.1291 17.1608 49.7533 16.8411C50.3622 16.5366 50.6819 16.1256 50.6819 15.6384C50.6819 15.3644 50.5449 15.136 50.2861 14.9533C50.0121 14.7706 49.6924 14.6793 49.3118 14.6793C48.7637 14.6793 48.2157 14.9229 47.6676 15.3796C47.1196 15.8515 46.6781 16.4605 46.3432 17.1912C45.993 17.9219 45.8256 18.6679 45.8256 19.4139C45.8256 20.0076 45.9778 20.51 46.2823 20.9058C46.5867 21.3168 46.9978 21.5147 47.5306 21.5147ZM46.9673 17.4652L46.9369 17.45C47.2414 16.5518 47.6219 15.8667 48.1091 15.3796C48.5049 15.0142 48.8398 14.8163 49.1443 14.8163C49.3727 14.8163 49.5553 14.8924 49.6924 15.0447C49.8141 15.1969 49.8903 15.3796 49.8903 15.5927C49.8903 16.1103 49.6771 16.5061 49.2661 16.7802C48.8551 17.0542 48.0939 17.2825 46.9673 17.4652ZM52.9495 21.332H59.6175L60.607 18.6983L60.5004 18.6831L60.3939 18.881C59.9524 19.6422 59.5261 20.2207 59.1303 20.6013C58.7193 20.9819 58.1864 21.1798 57.5318 21.1798L55.2635 21.1189L57.1512 12.2131C57.1664 12.0913 57.4252 12.0152 57.9429 11.9695L58.8563 11.9086L58.9172 11.8173H54.9742L54.9895 11.9086L55.3548 11.9543C55.7811 12.0152 56.0247 12.0456 56.1008 12.0608C56.1769 12.0913 56.2074 12.1217 56.2074 12.1674L54.3501 20.921C54.3196 21.0428 54.0608 21.1189 53.5584 21.1798L52.9952 21.2407L52.9495 21.332ZM65.1032 21.5299C65.6969 21.5299 66.3668 20.7992 67.0975 19.3225L67.0061 19.2768L65.8948 21.0123L65.2098 20.9362L66.1232 18.0285L67.2649 14.725L66.5038 14.6641L66.0623 16.1256H66.0471C66.0471 15.2121 65.7578 14.7554 65.1793 14.7554C64.753 14.7554 64.342 14.9686 63.9157 15.3948C63.2916 16.019 62.7131 16.7802 62.1955 17.6784C61.6779 18.5766 61.4191 19.3986 61.4191 20.1446C61.4191 20.5556 61.5256 20.8905 61.7692 21.1341C61.9976 21.3777 62.2868 21.4995 62.6217 21.4995C62.9871 21.4995 63.3525 21.2864 63.7331 20.8297C64.1137 20.3882 64.616 19.627 65.2402 18.5613H65.2707C64.8444 19.627 64.6465 20.2816 64.6465 20.5252C64.6465 20.784 64.6769 21.0123 64.7683 21.2255C64.8596 21.4386 64.9662 21.5299 65.1032 21.5299ZM63.0328 20.8753C62.8196 20.8753 62.6217 20.7992 62.4695 20.6165C62.3173 20.4338 62.2411 20.175 62.2411 19.8097C62.2411 19.1551 62.4086 18.3939 62.774 17.5261C63.1241 16.6584 63.5047 16.019 63.931 15.5927C64.205 15.3187 64.479 15.1817 64.753 15.1817C65.0727 15.1817 65.3315 15.3339 65.5447 15.6079C65.7426 15.8972 65.8491 16.1864 65.8491 16.4757C65.8491 16.8411 65.7274 17.2673 65.4838 17.7545C64.4486 19.8401 63.6265 20.8753 63.0328 20.8753ZM69.2478 21.5147C69.735 21.5147 70.2069 21.3473 70.6332 20.9819C71.0594 20.6165 71.2573 20.1903 71.2573 19.6879C71.2573 19.4291 71.166 19.1551 71.0138 18.8658C70.8615 18.5918 70.5114 18.1807 69.9633 17.6479C69.3239 17.039 68.989 16.5214 68.989 16.1256C68.9738 15.7602 69.0804 15.4557 69.3239 15.1969C69.5523 14.9381 69.872 14.8011 70.2678 14.8011C70.6636 14.8011 71.0138 14.999 71.303 15.3796C70.9681 15.4862 70.8006 15.6841 70.8006 15.9733C70.8006 16.1256 70.8311 16.2473 70.9224 16.3387C71.0138 16.43 71.1203 16.4757 71.2726 16.4757C71.4096 16.4757 71.5314 16.43 71.6379 16.3082C71.7445 16.2017 71.7902 16.0494 71.7902 15.8667C71.7749 15.5014 71.6379 15.2121 71.3791 14.999C71.1051 14.7859 70.7397 14.6793 70.2678 14.6793C69.8111 14.6793 69.3696 14.862 68.9738 15.2121C68.5628 15.5775 68.3649 15.9885 68.3801 16.4605C68.3801 16.704 68.441 16.9324 68.5628 17.1608C68.6845 17.4043 68.8063 17.587 68.9281 17.724C69.0499 17.8763 69.263 18.0742 69.5371 18.3482C69.5371 18.3634 69.598 18.4243 69.7198 18.5461C69.8415 18.6679 69.9024 18.744 69.9329 18.7745C69.9633 18.8049 70.0242 18.881 70.1156 18.9876C70.2069 19.0942 70.283 19.1703 70.3135 19.2312C70.3439 19.2921 70.3896 19.3834 70.4505 19.4747C70.5114 19.5661 70.5418 19.6574 70.5723 19.7488C70.5875 19.8401 70.6027 19.9315 70.6027 20.0228C70.6027 20.3729 70.4962 20.6926 70.2678 20.9819C70.0395 21.2711 69.7045 21.4081 69.2478 21.4081C68.7302 21.4081 68.2735 21.1798 67.8777 20.7079C68.0147 20.6622 68.1365 20.5861 68.2431 20.4643C68.3344 20.3577 68.3953 20.2359 68.3953 20.0989C68.3953 19.9619 68.3496 19.8401 68.2583 19.7488C68.1669 19.6574 68.0452 19.5965 67.9081 19.5965C67.7711 19.5965 67.6493 19.6574 67.558 19.7792C67.4514 19.901 67.4058 20.0532 67.4058 20.2359C67.4058 20.6317 67.5732 20.9362 67.9386 21.1646C68.2887 21.4081 68.7302 21.5147 69.2478 21.5147ZM73.0115 21.5147C73.4834 21.5147 74.0772 20.784 74.8079 19.3225L74.7166 19.2768L73.6205 21.0123L72.8136 20.921L74.5034 15.3339H75.8431L75.9649 14.9229L74.6404 14.9077L75.2798 12.8372H74.5339L73.8945 14.9077L72.8136 14.9229L72.6766 15.3187L73.7575 15.3339L72.0829 20.8905C72.0372 21.0123 72.1438 21.1341 72.3873 21.2864C72.6309 21.4386 72.844 21.5147 73.0115 21.5147ZM76.0757 21.5452C76.2584 21.5452 76.4107 21.4843 76.5324 21.3473C76.6542 21.2102 76.7304 21.0428 76.7304 20.8601C76.7304 20.6926 76.6695 20.5404 76.5477 20.4034C76.4259 20.2816 76.2736 20.2055 76.091 20.2055C75.8931 20.2055 75.7256 20.2816 75.5886 20.4034C75.4516 20.5404 75.3907 20.6926 75.3907 20.8601C75.3907 21.0428 75.4516 21.2102 75.5886 21.3473C75.7104 21.4843 75.8778 21.5452 76.0757 21.5452Z" fill="white"/>
<path d="M3.94546 10H5.74692L7.05361 2.62923H11.367L11.6461 1.11955H1.2052L0.926104 2.62923H5.25215L3.94546 10ZM11.2997 10H13.1011L13.4183 8.22391V8.24928C13.7862 6.16872 14.8899 4.81128 16.26 4.81128C17.4906 4.81128 17.8712 5.54709 17.5414 7.46273L17.0847 10H18.8861L19.3809 7.24706C19.863 4.48143 19.1906 3.47921 17.4018 3.45384C15.4862 3.45384 14.3571 4.58293 13.7862 6.27021H13.6847L14.8519 1.11955H12.8728L11.2997 10ZM23.9499 10.203C25.5483 10.203 26.2968 10.0507 27.6035 9.58135L27.8573 8.13511C27.0834 8.43958 26.373 8.83286 24.8252 8.83286C23.1506 8.83286 22.3894 8.41421 22.3641 7.37392H28.2632L28.4535 6.33364C28.7326 4.6083 27.4132 3.45384 25.1424 3.45384C22.8461 3.45384 21.0827 4.79859 20.7275 6.82841C20.3723 8.85823 21.6536 10.203 23.9499 10.203ZM22.4782 6.49857C22.8081 5.29336 23.5693 4.83665 24.9013 4.83665C26.2715 4.83665 26.8804 5.2553 26.7282 6.39707L22.4782 6.49857ZM33.0616 10H34.8631L35.5355 6.19409H41.7137L41.9548 4.78591H35.7765L36.1571 2.62923H42.4495L42.716 1.11955H34.6347L33.0616 10ZM44.8528 2.5658C45.5506 2.5658 46.0326 2.23595 46.1595 1.5382C46.2737 0.853137 45.8931 0.523292 45.208 0.523292C44.5356 0.523292 44.0409 0.853137 43.9267 1.5382C43.7998 2.23595 44.1677 2.5658 44.8528 2.5658ZM42.6581 10H44.4595L45.5759 3.65682H43.7745L42.6581 10ZM46.2913 10H48.0928L48.4861 7.75452C48.8793 5.78813 50.0972 4.96352 52.7106 4.96352L52.9643 3.45384C50.592 3.45384 49.4883 4.18965 48.7905 6.27021H48.6637L49.3868 3.65682H47.4077L46.2913 10ZM55.8855 10.203C58.1183 10.203 59.7294 9.58135 59.9832 8.10973C60.4653 5.34411 54.5788 6.76498 54.8071 5.5344C54.8833 5.09038 55.5683 4.87471 57.0653 4.87471C58.0168 4.87471 59.1205 5.01426 59.9832 5.20456L60.2369 3.80906C59.1712 3.59339 57.8899 3.45384 57.1287 3.45384C54.8959 3.45384 53.2721 4.1389 53.0184 5.55978C52.5363 8.31271 58.4481 6.75229 58.2198 8.10973C58.1183 8.64256 57.4078 8.80748 55.8474 8.80748C54.731 8.80748 53.8176 8.66793 52.8281 8.26197L52.5743 9.70821C53.5766 10.0127 54.9086 10.203 55.8855 10.203ZM62.8355 10.1269C63.5206 10.1269 64.0407 10.0507 64.5989 9.87314L64.7638 8.92166C62.9116 9.02315 62.9497 8.84554 63.2161 7.33587L63.6348 4.96352H65.4616L65.7026 3.65682H63.8631L64.1803 1.88073L62.5945 2.13446L62.3154 3.65682H61.1609L60.9199 4.96352H61.8333L61.3512 7.71646C61.0341 9.5306 61.1863 10.1269 62.8355 10.1269Z" fill="white"/>
</svg>
